Patient4_TMGait_0pt8_01_left_45_EMG.mot
version=1
nRows=36
nColumns=33
inDegrees=no
endheader
time	1LAddLong	2LGlutMax	3LGlutMed	4LIliopsoas	5LSemiMemb	6LBicFemLong	7LRecFem	8LVastMed	9LVastLat	10LGasMed	11LTibAnt	12lTibPost	13LPeroneusLong	14LSol	15LExtDigLong	16LFlexDigLong	17RAddLong	18RGlutMax	19RGlutMed	20RIliopsoas	21RSemiMemb	22RBicFemLong	23RRecFem	24RVastMed	25RVastLat	26RGasMed	27RTibAnt	28RTibPost	29RPeroneusLong	30RSol	31RExtDigLong	32RFlexDigLong
51.258	0.006256	0.054321	-0.2034	0.007019	-0.018616	0.063171	-0.04715	0.007935	0.1207	-0.00946	0.028534	-0.002136	0.02533	0.019531	-0.072937	-0.006409	0.00946	-0.31876	0.34073	-0.015259	-0.047455	-0.012512	-0.1474	-0.035706	0.00473	-0.015411	-0.031586	-0.001831	-0.12299	0.3923	-0.002747	-0.013123
51.259	0.007019	0.11322	-0.23193	0.003815	0.000916	0.066528	-0.096283	0.006409	0.13199	-0.02533	0.043945	-0.001221	0.037384	0.013123	0.040436	0.014343	0.007477	-0.34958	0.036469	0.043945	-0.027466	0.034332	-0.12131	-0.077362	-0.024414	-0.011139	0.18951	0	-0.13718	0.40314	-0.003357	-0.016022
51.26	0.005341	0.19516	-0.21957	0.009003	-0.002289	0.064392	-0.077209	0.005341	0.12817	-0.018158	0.024872	-0.001373	0.038147	-0.019226	-0.23148	-0.011444	0.014496	-0.36667	-0.010223	0.024414	-0.010376	0.036316	0.016632	-0.02655	0.025024	-0.023193	0.4361	-0.003052	-0.19211	0.18478	-0.003357	-0.018158
51.261	0.007019	0.29144	-0.087585	0.006561	-0.0177	0.070343	-0.10483	0.005188	0.13626	-0.041046	0.015106	-0.003357	0.040894	0.014954	-0.24109	0.007477	0.004578	-0.26306	0.21454	-0.032806	-0.010986	-0.005341	0.096893	-0.13168	-0.012665	-0.025024	0.24826	0.000153	-0.084839	-0.072479	-0.003815	-0.019379
51.262	0.014038	0.37491	0.031738	-0.017242	0.005035	0.013275	-0.10407	0.008087	0.14297	-0.030365	-0.024109	0.005341	0.088959	0.034332	-0.067139	-0.016174	-0.007782	-0.26337	0.37964	-0.08194	-0.004883	0.033569	0.13992	-0.1329	-0.06897	-0.026093	0.19104	-0.004272	0.038757	-0.45959	-0.001831	-0.017548
51.263	0.011597	0.42618	0.033875	-0.000916	0.020447	0.046082	-0.11749	0.00412	0.14999	-0.048065	0.012817	-0.003204	0.069427	0.053864	-0.061035	-0.004272	0.003204	-0.27191	0.39536	-0.047607	-0.016174	0.017395	0.23499	-0.21042	-0.15717	-0.015259	-0.24963	-0.004578	0.14755	-0.4277	-0.005341	-0.018311
51.264	0.015411	0.39612	0.025787	0.003662	-0.025024	0.042267	-0.11963	0.00473	0.13336	-0.058746	0.10147	-0.008698	0.038147	0.016022	-0.005493	-0.002136	0.018311	-0.31662	0.16876	-0.020294	-0.02594	0.016327	0.30243	-0.43976	-0.19913	-0.015259	-0.69031	-0.002594	0.21149	-0.25162	-0.003662	-0.015717
51.265	0.009613	0.43808	0.051422	-0.004272	-0.040131	0.047607	-0.11627	0.00412	0.12146	-0.081635	-0.002899	-0.004578	0.0354	-0.03067	-0.10956	-0.002899	0.007782	-0.35934	-0.20187	0.050507	-0.015869	0.019989	0.042572	-0.49576	-0.25925	-0.014191	-0.12177	0.000153	0.1294	-0.11566	-0.003662	-0.009308
51.266	0.010223	0.43167	0.046234	0.014343	-0.097656	0.001068	-0.11841	0.007172	0.1001	-0.085144	-0.003204	-0.009613	0.063171	-0.10361	-0.038147	0.005646	-0.002441	-0.32608	0.012512	0.012512	-0.004272	0.024109	-0.10544	-0.35614	-0.13641	-0.008087	0.15686	0.003662	0.003815	-0.13458	-0.001068	-0.00412
51.267	0.006256	0.45334	0.069733	0.010223	-0.083771	-0.042419	-0.087433	0.005341	0.082397	-0.056305	0.024414	-0.011444	0.075836	-0.06134	0.087738	0.00061	-0.036316	-0.35202	0.25711	-0.039215	-0.006256	0.043488	-0.29862	-0.23163	0.053253	-0.00946	0.41	-0.001984	-0.16296	0.018463	0.001831	-0.004272
51.268	0.006409	0.44098	-0.015411	0.00824	-0.038757	-0.024872	-0.091095	0.003357	0.067139	-0.050507	-0.010834	-0.011444	0.11932	-0.080109	-0.04303	0.009308	-0.039368	-0.36484	0.401	-0.02182	-0.023956	0.039368	-0.61768	-0.12863	-0.00946	-0.011902	0.36896	-0.001831	-0.18921	-0.097198	-0.00412	-0.00885
51.269	0.010071	0.45822	-0.031586	-0.002899	0.045624	-0.052338	-0.068359	0.001526	0.044708	-0.083618	0.038605	-0.000458	0.14084	-0.10834	-0.036316	0.25497	-0.035095	-0.35263	0.03418	0.081024	0	0.02655	-0.80093	0.10117	0.18906	-0.013885	0.00412	-0.004883	0.065308	-0.069427	-0.005951	-0.003357
51.27	0.011749	0.46814	-0.025787	-0.005951	0.038757	-0.061951	-0.068207	0.001678	0.031128	-0.081787	0.018311	-0.005951	0.13168	-0.15945	-0.013885	-0.95215	-0.0177	-0.36896	-0.081329	0.17197	-0.013428	0.009308	-0.78201	0.25909	0.30075	-0.006714	0.30655	-0.008698	0.28458	0.081787	-0.003967	-0.015564
51.271	0.017242	0.448	0.009308	-0.011292	0.056763	-0.016632	-0.074921	0	0.018311	-0.048523	-0.006866	-0.004272	0.10895	-0.14053	0.01358	0.30777	-0.009613	-0.38254	-0.080414	0.12131	-0.022125	-0.003204	-0.49866	0.36057	0.20371	-0.019531	-0.81848	-0.011749	0.058289	-0.072784	0.000458	-0.018768
51.272	0.017242	0.43503	0.031738	-0.008087	0.028381	0.037994	-0.05249	-0.00061	0.007019	-0.06134	0.005798	0.000153	0.10773	-0.16052	0.077515	0.23148	0.016479	-0.36209	0.056915	-0.014496	-0.020905	-0.006409	-0.11673	0.33524	0.086212	-0.018005	-0.79056	-0.008545	-0.23285	-0.098877	-0.003357	-0.024567
51.273	0.057831	0.41809	0.013275	-0.001831	-0.027771	0.041046	-0.066986	0.001831	0.00885	-0.044556	0.04303	-0.006866	0.072327	-0.1152	0.11475	0.15701	0.011597	-0.34485	-0.094757	-0.0737	-0.030365	-0.008392	-0.042572	0.34683	0.059814	-0.016022	-0.46478	-0.001984	-0.29312	0.11475	-0.003967	-0.018768
51.274	-0.064087	0.39124	-0.008698	0.005188	-0.053101	0.021057	-0.072479	0.024719	0.007172	-0.024261	0.061035	-0.007019	0.036163	-0.079498	0.029755	0.079346	-0.001373	-0.32059	-0.082092	-0.086212	-0.018463	-0.00885	-0.22675	0.23865	0.074768	0.007629	1.1894	0.001068	-0.16144	-0.075531	-0.003662	-0.015106
51.275	-0.074768	0.36545	-0.031891	-0.003204	-0.027008	-0.031738	-0.070343	0.006409	-0.003204	-0.040131	0.020447	-0.004578	0.075684	-0.10757	-0.15717	0.042877	0.006561	-0.34317	0.034485	-0.10452	-0.035858	-0.041809	-0.16632	0.10788	0.096436	0.00946	0.98572	-0.001984	-0.064392	-0.010223	-0.00351	-0.009308
51.276	-0.001678	0.33081	-0.037079	0.035553	-0.012054	-0.038452	-0.076141	0.002289	0.005035	-0.01297	-0.012512	0.001678	0.091705	-0.20752	0.22522	0.047913	0.003967	-0.34515	-0.32379	-0.037537	-0.018158	-0.023499	-0.079651	0.06073	0.13794	0.009155	-0.066833	-0.007477	-0.014191	0.1506	-0.004272	-0.011444
51.277	-0.00885	0.34759	-0.037079	0.036926	0.009155	-0.045471	-0.083771	0.002594	0.002899	-0.016937	-0.016174	0.003204	0.090027	-0.27832	-0.0177	0.016632	0.020447	-0.33875	-0.13596	0.056	0.022736	-0.022125	0.006866	-0.004578	0.097504	0.017853	-0.42755	-0.007782	0.1973	0.092621	-0.00824	-0.010681
51.278	0.019073	0.32333	-0.042267	0.015411	-0.028229	-0.076752	-0.084076	-0.005341	0.002747	-0.029755	-0.013123	0.008698	0.084686	-0.24506	-0.13336	0.015106	0.026855	-0.28503	0.062103	0.10819	0.009308	-0.002747	-0.018921	-0.053253	0.056458	0.003662	-0.63751	-0.006561	0.26932	-0.078583	-0.000458	-0.020905
51.279	0.031891	0.31723	-0.037994	0.00824	0.038757	-0.073547	-0.067139	-0.009766	-0.002136	-0.02121	-0.001068	0.008087	0.071106	-0.17777	-0.21332	0	0.021057	-0.3157	0.32272	0.15167	-0.099487	0.058289	-0.19791	-0.10376	0.070496	-0.000916	-0.31174	-0.005341	0.19745	-0.082245	-0.003357	-0.01358
51.28	0.030212	0.28839	-0.048981	-0.002441	0.075836	-0.024719	-0.065002	-0.003204	-0.010834	-0.028381	0.016174	0.005951	0.046692	-0.053101	-0.088196	-0.022278	-0.011902	-0.32928	-0.32059	0.091095	-0.20706	0.074921	-0.099182	-0.092773	0.05127	0.000763	0.19989	-0.008087	0.11643	0.037079	-0.000153	-0.01358
51.281	0.022125	0.29419	-0.052948	-0.007935	0.045776	0.014191	-0.058136	0.002899	-0.014801	-0.020142	0.097961	0.003204	0.040588	0.005493	-0.006104	-0.028687	-0.020599	-0.36026	-0.15396	-0.021973	-0.080719	0.019226	-0.1442	0.023804	-0.015717	-0.011139	0.13199	-0.009308	0.084839	0.023651	-0.000916	-0.011139
51.282	0.022583	0.28442	-0.055084	0.005188	0.032349	0.016785	-0.061646	-0.005646	-0.000916	-0.02243	0.17746	0.003357	0.019379	0.015106	0.021973	-0.048828	-0.012207	-0.35324	-0.1564	-0.007629	0.085602	-0.022278	-0.24368	-0.112	-0.028839	-0.029755	-0.13001	-0.011444	0.000763	-0.023956	-0.003662	-0.007935
51.283	0.015106	0.28397	-0.058136	0.009766	0.026093	0.032959	-0.047455	-0.005188	-0.012512	-0.033722	0.13123	-0.011292	0.042114	-0.050659	0.016785	0.080414	0.003204	-0.33615	-0.16739	0.001678	0.006104	-0.028992	-0.22812	-0.12314	0.032043	-0.019073	-0.1799	-0.010529	0.036621	0.013275	-0.003357	-0.002747
51.284	-0.002289	0.28641	-0.051422	0.013428	0.010376	0.017853	-0.072174	-0.00412	-0.007477	-0.050354	-0.027924	-0.003204	0.056915	-0.14511	0.027161	0.22827	0.014954	-0.34653	-0.068817	0.049286	-0.040283	-0.010223	-0.066986	-0.21606	0.015717	-0.011597	-0.11383	-0.004883	0.033264	0.16159	-0.004272	-0.001373
51.285	-0.006104	0.24612	-0.068359	0.003662	0.007629	0.015106	-0.068512	-0.002441	-0.016174	-0.05661	-0.067444	0.000305	0.0737	-0.14267	0.033264	-0.06546	0.003662	-0.32074	-0.042419	0.030823	-0.034027	0.006714	0.041962	-0.11032	0.10849	-0.016022	0.055237	-0.010681	-0.037231	0.20508	-0.003662	-0.00946
51.286	-0.012207	0.21194	-0.079346	0.010834	0.001221	0.019073	-0.081329	-0.002289	-0.002747	-0.044403	-0.082245	0.002289	0.039978	-0.10269	0.03418	-0.47562	0.015259	-0.31876	-0.5513	-0.11734	-0.056763	0.034943	-0.003967	0.10162	0.25574	-0.022278	0.23773	-0.006866	-0.20309	-0.045471	-0.003052	-0.018616
51.287	0.00885	0.20126	-0.097198	0.006714	-0.001526	0.005035	-0.07782	-0.003662	-0.006561	-0.043793	-0.024261	0.002441	0.046234	-0.11139	0.036163	0.31281	0.006104	-0.31235	-0.084381	-0.1799	-0.10803	0.028076	-0.057526	0.058594	0.14969	-0.011444	0.28412	-0.006714	-0.16098	-0.4744	-0.002136	-0.011292
51.288	0.021362	0.20279	-0.07431	0.012207	0.006256	0.017853	-0.080566	-0.002289	-0.010681	-0.046387	-0.042877	0.005341	0.02655	-0.079346	0.059509	-0.11551	-0.008087	-0.27649	0.18738	-0.15472	-0.021667	-0.016174	-0.26032	-0.037231	0.12589	-0.003357	0.30731	-0.003662	-0.028992	-0.38116	0.000305	-0.023193
51.289	0.014496	0.17853	-0.034637	0.003052	-0.046844	0.014191	-0.092926	0.002441	0.005646	-0.04364	-0.032196	-0.001678	0.016174	-0.041046	0.052948	0.16373	-0.016174	-0.34592	0.43304	-0.047607	-0.039825	0.000305	-0.31998	-0.077972	0.041656	0.003357	0.4689	-0.00824	0.042267	-0.27679	0.000916	-0.019836
51.29	0.013123	0.14725	-0.037842	-0.00061	-0.089569	0.03067	-0.088501	-0.007324	0.004578	-0.055389	-0.06897	0.002289	0.044098	-0.033264	0.011444	0.27298	-0.011292	-0.35614	0.23148	0.058136	-0.075378	0.069733	-0.26657	-0.044403	-0.05127	0.005798	0.35767	-0.005035	0.12268	0.071259	-0.007324	-0.019989
51.291	0.009155	0.1387	-0.076904	0.006714	-0.058289	0.025177	-0.10513	0.001068	0.007172	-0.034637	-0.07431	-0.00412	0.091248	-0.026398	-0.004272	0.093842	-0.047607	-0.39612	0.41946	0.1091	-0.008545	0.10941	-0.36148	-0.019073	-0.15427	-0.028687	-0.052032	-0.007019	0.080109	-0.15335	-0.003204	-0.032349
51.292	-0.000305	0.084534	-0.055847	0.005341	-0.011597	0.064545	-0.10452	0.005951	0.007324	-0.029297	0.056	-0.003204	0.054474	-0.062561	-0.023346	0.040283	-0.027771	-0.39261	0.11795	0.08194	0.12878	0.077667	-0.31067	0.086975	-0.10178	-0.041046	-0.17151	0.010986	0.050201	-0.69961	-0.001068	-0.024109
51.293	-0.008698	0.046997	-0.013123	0.002594	0.007019	0.058899	-0.10025	0.010529	0.001373	-0.028992	0.030365	-0.003662	0.047913	-0.16892	-0.014343	0.014648	0.007324	-0.41565	-0.3122	0.096436	0.11932	0.010681	-0.19287	0.021057	-0.053101	-0.043335	-0.1857	0.051422	0.13077	-0.30518	-0.005035	-0.027313
